<?xml version="1.0" encoding="UTF-8"?>
<svg id="Layer_2" data-name="Layer 2" xmlns="http://www.w3.org/2000/svg" viewBox="0 0 243.88 243.88">
  <defs>
    <style>
      .cls-1 {
        fill-rule: evenodd;
      }
    </style>
  </defs>
  <g id="icon_set" data-name="icon set">
    <path class="cls-1" d="m0,121.94C0,54.59,54.59,0,121.94,0s121.94,54.59,121.94,121.94-54.59,121.94-121.94,121.94S0,189.29,0,121.94Zm121.94-60.97c33.53,0,60.97,27.44,60.97,60.97,0,30.48-22.1,56.4-52.59,60.97v-43.44h14.48l3.05-17.53h-16.77v-11.43c0-4.57,2.29-9.15,9.91-9.15h7.62v-15.24s-6.86-1.52-13.72-1.52c-13.72,0-22.86,8.38-22.86,23.63v13.72h-15.24v17.53h15.24v42.68c-28.96-4.57-51.06-29.72-51.06-60.21,0-33.53,27.44-60.97,60.97-60.97Z"/>
  </g>
</svg>