<?xml version="1.0" encoding="UTF-8"?>
<svg id="Layer_2" data-name="Layer 2" xmlns="http://www.w3.org/2000/svg" viewBox="0 0 243.88 243.88">
  <defs>
    <style>
      .cls-1 {
        fill-rule: evenodd;
      }
    </style>
  </defs>
  <g id="icon_set" data-name="icon set">
    <path class="cls-1" d="m0,121.94C0,54.59,54.59,0,121.94,0s121.94,54.59,121.94,121.94-54.59,121.94-121.94,121.94S0,189.29,0,121.94Zm60.97,1.28c0-33.56,27.22-60.79,60.79-60.79s60.78,27.22,61.15,60.79c0,26.84-17.16,49.59-41.39,57.8-2.99.37-4.1-1.49-4.1-2.99v-16.78c0-5.59-1.87-9.32-4.11-11.19,13.43-1.49,27.6-6.33,27.6-29.83,0-6.71-2.61-12.31-6.34-16.41.03-.11.08-.26.12-.44.57-2.06,2.23-8.03-.87-15.59,0,0-5.22-1.49-16.77,6.34-4.85-1.12-10.07-1.87-15.29-1.87s-10.44.37-15.3,1.87c-11.55-7.83-16.77-6.34-16.77-6.34-3.3,8.06-1.2,14.31-.77,15.6l.02.06c-4.11,4.47-6.34,9.69-6.34,16.41,0,23.5,14.17,28.72,27.6,30.2-1.49,1.49-3.36,4.11-3.73,8.21-3.35,1.49-11.93,4.1-17.52-5.22,0,0-3.36-5.97-9.33-6.34,0,0-5.96,0-.37,3.73,0,0,4.1,1.87,6.71,8.95,0,0,3.73,11.93,20.51,8.2v10.44c0,1.49-1.11,3.36-4.1,2.99-23.86-8.21-41.39-30.96-41.39-57.8Z"/>
  </g>
</svg>