<?xml version="1.0" encoding="UTF-8"?>
<svg id="Layer_2" data-name="Layer 2" xmlns="http://www.w3.org/2000/svg" viewBox="0 0 243.88 243.88">
  <defs>
    <style>
      .cls-1 {
        fill-rule: evenodd;
      }
    </style>
  </defs>
  <g id="icon_set" data-name="icon set">
    <g>
      <path d="m121.94,143.28c-11.43,0-21.34-9.15-21.34-21.34,0-11.43,9.15-21.34,21.34-21.34,11.43,0,21.34,9.15,21.34,21.34,0,11.43-9.91,21.34-21.34,21.34Z"/>
      <path class="cls-1" d="m147.85,70.11h-51.82c-6.1.76-9.15,1.52-11.43,2.29-3.05.76-5.33,2.29-7.62,4.57-1.81,1.81-2.67,3.62-3.7,5.81-.27.57-.56,1.18-.88,1.81-.11.35-.25.72-.4,1.13-.8,2.17-1.89,5.15-1.89,10.3v51.82c.76,6.1,1.52,9.15,2.29,11.43.76,3.05,2.29,5.33,4.57,7.62,1.81,1.81,3.62,2.67,5.81,3.7.57.27,1.18.56,1.81.88.35.11.72.25,1.13.4,2.17.8,5.15,1.89,10.3,1.89h51.82c6.1-.76,9.15-1.52,11.43-2.29,3.05-.76,5.33-2.29,7.62-4.57,1.81-1.81,2.67-3.62,3.7-5.81.27-.57.56-1.18.88-1.81.11-.35.25-.72.4-1.13.8-2.17,1.89-5.15,1.89-10.3v-51.82c-.76-6.1-1.52-9.15-2.29-11.43-.76-3.05-2.29-5.33-4.57-7.62-1.81-1.81-3.62-2.67-5.81-3.7-.57-.27-1.18-.56-1.81-.88-.35-.11-.72-.25-1.13-.4-2.17-.8-5.15-1.89-10.3-1.89Zm-25.91,19.05c-18.29,0-32.77,14.48-32.77,32.77s14.48,32.77,32.77,32.77,32.77-14.48,32.77-32.77-14.48-32.77-32.77-32.77Zm41.15-.76c0,4.21-3.41,7.62-7.62,7.62s-7.62-3.41-7.62-7.62,3.41-7.62,7.62-7.62,7.62,3.41,7.62,7.62Z"/>
      <path class="cls-1" d="m0,121.94C0,54.59,54.59,0,121.94,0s121.94,54.59,121.94,121.94-54.59,121.94-121.94,121.94S0,189.29,0,121.94Zm96.03-63.26h51.82c6.86.76,11.43,1.52,15.24,3.05,4.57,2.29,7.62,3.81,11.43,7.62,3.81,3.81,6.1,7.62,7.62,11.43,1.52,3.81,3.05,8.38,3.05,15.24v51.82c-.76,6.86-1.52,11.43-3.05,15.24-2.29,4.57-3.81,7.62-7.62,11.43-3.81,3.81-7.62,6.1-11.43,7.62-3.81,1.52-8.38,3.05-15.24,3.05h-51.82c-6.86-.76-11.43-1.52-15.24-3.05-4.57-2.29-7.62-3.81-11.43-7.62-3.81-3.81-6.1-7.62-7.62-11.43-1.52-3.81-3.05-8.38-3.05-15.24v-51.82c.76-6.86,1.52-11.43,3.05-15.24,2.29-4.57,3.81-7.62,7.62-11.43,3.81-3.81,7.62-6.1,11.43-7.62,3.81-1.52,8.38-3.05,15.24-3.05Z"/>
    </g>
  </g>
</svg>