<?xml version="1.0" encoding="UTF-8"?>
<svg id="Layer_2" data-name="Layer 2" xmlns="http://www.w3.org/2000/svg" viewBox="0 0 243.88 243.88">
  <defs>
    <style>
      .cls-1 {
        fill-rule: evenodd;
      }
    </style>
  </defs>
  <g id="icon_set" data-name="icon set">
    <path class="cls-1" d="m0,121.94C0,54.59,54.59,0,121.94,0s121.94,54.59,121.94,121.94-54.59,121.94-121.94,121.94S0,189.29,0,121.94Zm62.49-20.58v81.55h25.91v-81.55h-25.91Zm-1.52-25.91c0,8.38,6.1,14.48,14.48,14.48s14.48-6.1,14.48-14.48-6.1-14.48-14.48-14.48c-7.62,0-14.48,6.1-14.48,14.48Zm96.03,107.46h24.39v-50.3c0-25.15-15.24-33.53-29.72-33.53-12.96,0-22.1,8.38-24.39,13.72v-11.43h-24.39v81.55h25.91v-43.44c0-11.43,7.62-17.53,15.24-17.53s12.96,3.81,12.96,16.77v44.2Z"/>
  </g>
</svg>