<?xml version="1.0" encoding="UTF-8"?>
<svg id="Layer_2" data-name="Layer 2" xmlns="http://www.w3.org/2000/svg" viewBox="0 0 243.88 243.88">
  <defs>
    <style>
      .cls-1 {
        fill-rule: evenodd;
      }
    </style>
  </defs>
  <g id="icon_set" data-name="icon set">
    <path class="cls-1" d="m0,121.94C0,54.59,54.59,0,121.94,0s121.94,54.59,121.94,121.94-54.59,121.94-121.94,121.94S0,189.29,0,121.94Zm168.43-34.3c5.33-.76,9.91-1.52,14.48-3.81-3.05,5.33-7.62,9.91-12.96,12.96,1.52,35.82-24.39,74.69-70.88,74.69-13.72,0-26.67-4.57-38.11-11.43,12.96,1.52,26.67-2.29,35.82-9.15-11.43,0-20.58-7.62-23.63-17.53,3.81.76,7.62,0,11.43-.76-11.43-3.05-19.82-13.72-19.82-25.15,3.81,1.52,7.62,3.05,11.43,3.05-10.67-7.62-14.48-22.1-7.62-33.53,12.96,15.24,31.25,25.15,51.82,25.91-3.81-15.24,8.38-30.48,24.39-30.48,6.86,0,13.72,3.05,18.29,7.62,6.1-1.52,11.43-3.05,16-6.1-1.52,6.1-5.33,10.67-10.67,13.72Z"/>
  </g>
</svg>