<?xml version="1.0" encoding="UTF-8"?>
<svg id="Layer_2" data-name="Layer 2" xmlns="http://www.w3.org/2000/svg" viewBox="0 0 243.88 243.88">
  <defs>
    <style>
      .cls-1 {
        fill-rule: evenodd;
      }
    </style>
  </defs>
  <g id="icon_set" data-name="icon set">
    <g>
      <path d="m141.75,121.94l-32.01-18.29v36.58l32.01-18.29Z"/>
      <path class="cls-1" d="m0,121.94C0,54.59,54.59,0,121.94,0s121.94,54.59,121.94,121.94-54.59,121.94-121.94,121.94S0,189.29,0,121.94Zm169.19-40.39c5.33,1.52,9.15,5.33,10.67,10.67,3.05,9.91,3.05,29.72,3.05,29.72,0,0,0,19.82-2.29,29.72-1.52,5.33-5.33,9.15-10.67,10.67-9.91,2.29-48.01,2.29-48.01,2.29,0,0-38.87,0-48.01-2.29-5.33-1.52-9.15-5.33-10.67-10.67-2.29-9.91-2.29-29.72-2.29-29.72,0,0,0-19.82,1.52-29.72,1.52-5.33,5.33-9.15,10.67-10.67,9.91-2.29,48.01-2.29,48.01-2.29,0,0,38.87,0,48.01,2.29Z"/>
    </g>
  </g>
</svg>